<svg xmlns="http://www.w3.org/2000/svg" version="1.1" xmlns:xlink="http://www.w3.org/1999/xlink" xmlns:svgjs="http://svgjs.dev/svgjs" width="2000" height="490" viewBox="0 0 2000 490"><g transform="matrix(1,0,0,1,0.09848152465065141,-0.861777777777661)"><svg viewBox="0 0 257 63" data-background-color="#000000" preserveAspectRatio="xMidYMid meet" height="490" width="2000" xmlns="http://www.w3.org/2000/svg" xmlns:xlink="http://www.w3.org/1999/xlink"><g id="tight-bounds" transform="matrix(1,0,0,1,-0.012654875917604613,0.11079999999998336)"><svg viewBox="0 0 257.0253097518352 62.778400000000005" height="62.778400000000005" width="257.0253097518352"><g><svg viewBox="0 0 257.0253097518352 62.778400000000005" height="62.778400000000005" width="257.0253097518352"><g><svg viewBox="0 0 257.0253097518352 62.778400000000005" height="62.778400000000005" width="257.0253097518352"><g id="textblocktransform"><svg viewBox="0 0 257.0253097518352 62.778400000000005" height="62.778400000000005" width="257.0253097518352" id="textblock"><g><svg viewBox="0 0 257.0253097518352 62.778400000000005" height="62.778400000000005" width="257.0253097518352"><g><svg><g></g><g></g></svg></g><g><svg><g></g><g><svg></svg></g></svg></g><g id="text-0"><svg viewBox="0 0 257.0253097518352 62.778400000000005" height="62.778400000000005" width="257.0253097518352"><g><svg xmlns="http://www.w3.org/2000/svg" xmlns:xlink="http://www.w3.org/1999/xlink" version="1.1" x="0" y="0" viewBox="31.5 37.92359531326266 65.3 52.07640468673734" style="enable-background:new 0 0 128 128;" xml:space="preserve" height="62.778400000000005" width="78.71951884274435" class="icon-dxe-0" data-fill-palette-color="accent" id="dxe-0"><g fill="#ffffff" data-fill-palette-color="accent"><path d="M96 68.3L80 40.7 75.1 38.2C74.3 37.8 73.3 38.1 72.9 38.9S72.8 40.7 73.6 41.1L77.6 43.2 91.4 66.9C83.8 65.8 75.9 65.8 68.2 66.8 67.6 66.9 67 67.2 66.5 67.5H61.4C60.9 67.1 60.3 66.9 59.7 66.8 52.1 65.8 44.2 65.8 36.6 66.8L50.4 43.1 54.4 41C55.2 40.6 55.5 39.6 55.1 38.8S53.7 37.7 52.9 38.1L48 40.6 32 68.3C31.9 68.5 31.8 68.7 31.8 69 31.6 69.4 31.5 69.9 31.5 70.4 31.5 71.6 32 72.8 32.9 73.7L34.5 75.3C35.2 77.2 35.6 79.1 36.1 81.2 36.6 83.2 37.1 85.3 37.8 87.3 38.2 88.5 39.4 89.4 40.8 89.6 43.2 89.9 45.6 90 48 90H48.2C50.7 90 54.7 89.8 56.8 89.6 58.3 89.4 59.5 88.4 59.9 87 60.5 84.2 61 81.4 61.4 78.7 61.8 76.1 62.2 73.3 62.8 70.7H65.5C66.1 73.4 66.5 76.1 66.9 78.7 67.3 81.4 67.7 84.2 68.4 87 68.7 88.4 69.9 89.4 71.5 89.6 73.6 89.8 77.6 90 80.1 90H80.3C82.7 90 85.1 89.9 87.5 89.6 88.9 89.4 90 88.6 90.5 87.3 91.2 85.2 91.7 83.2 92.2 81.2S93.1 77.3 93.8 75.3L95.4 73.7C96.3 72.8 96.8 71.6 96.8 70.4 96.8 70 96.7 69.5 96.5 69.2 96.2 68.8 96.2 68.6 96 68.3" fill="#000000" data-fill-palette-color="accent"></path></g></svg></g><g transform="matrix(1,0,0,1,93.54111884274435,0)"><svg width="163.48419090909087" viewBox="2.2 -37.8 101.03090909090908 38.800000000000004" height="62.778400000000005" data-palette-color="#ffffff"><path d="M29.6-5.45L29.6-5.45Q30.25-5.25 30.48-4.8 30.7-4.35 30.75-3.8L30.75-3.8Q28.45-1.5 25.55-0.25 22.65 1 19.35 1L19.35 1Q16 1 12.93-0.1 9.85-1.2 7.43-3.48 5-5.75 3.6-9.22 2.2-12.7 2.2-17.5L2.2-17.5Q2.2-22.25 3.78-25.73 5.35-29.2 7.93-31.48 10.5-33.75 13.63-34.88 16.75-36 19.85-36L19.85-36Q23.5-36 26.23-35.43 28.95-34.85 30.95-33.75L30.95-33.75Q31.05-31.45 30.58-29.45 30.1-27.45 29.4-25.55L29.4-25.55Q28.9-25.5 28.3-25.55 27.7-25.6 27.2-25.8L27.2-25.8 26.65-32.25Q25-32.95 23.5-33.15 22-33.35 20.2-33.35L20.2-33.35Q16.7-33.35 13.93-31.25 11.15-29.15 9.58-25.55 8-21.95 8-17.5L8-17.5Q8-12.8 9.35-9.22 10.7-5.65 13.35-3.65 16-1.65 19.9-1.65L19.9-1.65Q23-1.65 25.35-2.75 27.7-3.85 29.6-5.45ZM34.1-12.5L34.1-12.5Q34.1-16.4 35.62-19.45 37.15-22.5 40-24.25 42.85-26 46.7-26L46.7-26Q50.6-26 53.42-24.25 56.25-22.5 57.77-19.45 59.3-16.4 59.3-12.5L59.3-12.5Q59.3-8.5 57.77-5.45 56.25-2.4 53.42-0.7 50.6 1 46.7 1L46.7 1Q42.85 1 40-0.7 37.15-2.4 35.62-5.45 34.1-8.5 34.1-12.5ZM53.9-11.8L53.9-11.8Q53.9-15.15 53.15-17.88 52.4-20.6 50.8-22.23 49.2-23.85 46.6-23.85L46.6-23.85Q43.95-23.85 42.37-22.25 40.8-20.65 40.15-18 39.5-15.35 39.5-12.15L39.5-12.15Q39.5-9.25 40.25-6.73 41-4.2 42.62-2.68 44.25-1.15 46.8-1.15L46.8-1.15Q49.5-1.15 51.05-2.65 52.6-4.15 53.25-6.6 53.9-9.05 53.9-11.8ZM62.9-12.5L62.9-12.5Q62.9-16.4 64.42-19.45 65.95-22.5 68.8-24.25 71.65-26 75.5-26L75.5-26Q79.4-26 82.22-24.25 85.05-22.5 86.57-19.45 88.1-16.4 88.1-12.5L88.1-12.5Q88.1-8.5 86.57-5.45 85.05-2.4 82.22-0.7 79.4 1 75.5 1L75.5 1Q71.65 1 68.8-0.7 65.95-2.4 64.42-5.45 62.9-8.5 62.9-12.5ZM82.7-11.8L82.7-11.8Q82.7-15.15 81.95-17.88 81.2-20.6 79.6-22.23 78-23.85 75.4-23.85L75.4-23.85Q72.75-23.85 71.17-22.25 69.6-20.65 68.95-18 68.3-15.35 68.3-12.15L68.3-12.15Q68.3-9.25 69.05-6.73 69.8-4.2 71.42-2.68 73.05-1.15 75.6-1.15L75.6-1.15Q78.3-1.15 79.85-2.65 81.4-4.15 82.05-6.6 82.7-9.05 82.7-11.8ZM99.34-37.25L99.34-2.5 103.19-1.5Q103.34-0.55 102.94 0.25L102.94 0.25Q101.59 0.15 99.92 0.08 98.24 0 96.84 0L96.84 0Q95.44 0 93.79 0.08 92.14 0.15 90.74 0.25L90.74 0.25Q90.59-0.7 90.84-1.5L90.84-1.5Q91.79-1.75 92.72-1.95 93.64-2.15 94.34-2.5L94.34-2.5 94.34-34.3 90.19-34.7Q90.04-35.7 90.44-36.45L90.44-36.45Q92.24-36.7 94.07-37.05 95.89-37.4 97.44-37.8L97.44-37.8Q97.94-37.75 98.39-37.63 98.84-37.5 99.34-37.25L99.34-37.25Z" opacity="1" transform="matrix(1,0,0,1,0,0)" fill="#000000" class="wordmark-text-0" data-fill-palette-color="primary"></path></svg></g></svg></g></svg></g></svg></g></svg></g></svg></g><defs></defs></svg><rect width="257.0253097518352" height="62.778400000000005" fill="none" stroke="none" visibility="hidden"></rect></g></svg></g></svg>