<?xml version="1.0" encoding="UTF-8" standalone="no" ?>
<!DOCTYPE svg PUBLIC "-//W3C//DTD SVG 1.1//EN" "http://www.w3.org/Graphics/SVG/1.1/DTD/svg11.dtd">
<svg xmlns="http://www.w3.org/2000/svg" xmlns:xlink="http://www.w3.org/1999/xlink" version="1.1" width="1080" height="1080" viewBox="0 0 1080 1080" xml:space="preserve">
<desc>Created with Fabric.js 5.2.4</desc>
<defs>
</defs>
<g transform="matrix(1 0 0 1 540 540)" id="eb07b830-4132-4f03-87a8-507d396a46ed"  >
<rect style="stroke: none; stroke-width: 1; stroke-dasharray: none; stroke-linecap: butt; stroke-dashoffset: 0; stroke-linejoin: miter; stroke-miterlimit: 4; fill: rgb(255,255,255); fill-rule: nonzero; opacity: 1; visibility: hidden;" vector-effect="non-scaling-stroke"  x="-540" y="-540" rx="0" ry="0" width="1080" height="1080" />
</g>
<g transform="matrix(1 0 0 1 540 540)" id="a45dc1aa-85c4-47a4-a6d9-39e5e560debc"  >
</g>
<g transform="matrix(1 0 0 1 540 555.52)"  >
<g style="" vector-effect="non-scaling-stroke"   >
		<g transform="matrix(1.56 0 0 1.56 0 196.5)"  >
<path style="stroke: none; stroke-width: 1; stroke-dasharray: none; stroke-linecap: butt; stroke-dashoffset: 0; stroke-linejoin: miter; stroke-miterlimit: 4; fill: rgb(0,0,0); fill-rule: nonzero; opacity: 1;" vector-effect="non-scaling-stroke"  transform=" translate(-256, -381.76)" d="M 495.083 304.837 L 16.916 304.837 C 7.577 304.837 0 312.415 0 321.755 L 0 344.624 C 0 348.94300000000004 1.659 353.1 4.61 356.24600000000004 L 20.269000000000002 372.821 L 42.463 439.394 C 46.286 450.914 57.08 458.67900000000003 69.207 458.67900000000003 L 191.61 458.67900000000003 C 204.464 458.67900000000003 215.69400000000002 449.98900000000003 218.92600000000002 437.52900000000005 L 237.76700000000002 364.07200000000006 C 237.76700000000002 364.07200000000006 237.76700000000002 347.49700000000007 256.009 347.49700000000007 C 274.243 347.49700000000007 274.243 364.07200000000006 274.243 364.07200000000006 L 293.093 437.52900000000005 C 296.317 449.98900000000003 307.547 458.67900000000003 320.401 458.67900000000003 L 442.794 458.67900000000003 C 454.93899999999996 458.67900000000003 465.715 450.913 469.546 439.394 L 491.731 372.821 L 507.399 356.24600000000004 C 510.358 353.1 512 348.94300000000004 512 344.624 L 512 321.755 C 512 312.415 504.44 304.837 495.083 304.837 z" stroke-linecap="round" />
</g>
		<g transform="matrix(1.56 0 0 1.56 -254.55 -134.8)"  >
<path style="stroke: none; stroke-width: 1; stroke-dasharray: none; stroke-linecap: butt; stroke-dashoffset: 0; stroke-linejoin: miter; stroke-miterlimit: 4; fill: rgb(0,0,0); fill-rule: nonzero; opacity: 1;" vector-effect="non-scaling-stroke"  transform=" translate(-93.09, -169.73)" d="M 112.456 129.445 C 114.33800000000001 120.13999999999999 120.795 112.39099999999999 129.612 108.868 L 154.577 98.87899999999999 C 161.009 96.31299999999999 165.216 90.08599999999998 165.216 83.16699999999999 L 165.216 70.235 C 165.216 64.121 161.898 58.459 156.544 55.465 C 151.18200000000002 52.471000000000004 144.639 52.626000000000005 139.405 55.841 C 139.405 55.841 88.116 72.236 80.65 92.137 C 73.19200000000001 112.03 20.962000000000003 286.14099999999996 20.962000000000003 286.14099999999996 L 80.65 286.14099999999996 L 112.456 129.445 z" stroke-linecap="round" />
</g>
		<g transform="matrix(1.56 0 0 1.56 254.55 -134.79)"  >
<path style="stroke: none; stroke-width: 1; stroke-dasharray: none; stroke-linecap: butt; stroke-dashoffset: 0; stroke-linejoin: miter; stroke-miterlimit: 4; fill: rgb(0,0,0); fill-rule: nonzero; opacity: 1;" vector-effect="non-scaling-stroke"  transform=" translate(-418.91, -169.73)" d="M 357.423 98.879 L 382.397 108.86800000000001 C 391.223 112.391 397.671 120.14000000000001 399.552 129.44500000000002 L 431.35 286.14300000000003 L 491.04600000000005 286.14300000000003 C 491.04600000000005 286.14300000000003 438.81600000000003 112.03200000000004 431.35 92.13900000000004 C 423.892 72.23800000000004 372.60400000000004 55.84300000000004 372.60400000000004 55.84300000000004 C 367.37800000000004 52.62700000000004 360.82700000000006 52.47300000000004 355.46500000000003 55.46700000000004 C 350.11 58.46000000000004 346.783 64.12200000000004 346.783 70.23700000000004 L 346.783 83.16900000000004 C 346.784 90.086 350.992 96.313 357.423 98.879 z" stroke-linecap="round" />
</g>
</g>
</g>
<g transform="matrix(1 0 0 1 258.51 685.66)" style="" id="7852a77e-2866-4dd2-b7f5-c859b213edea"  >
		<text xml:space="preserve" font-family="Lato" font-size="40" font-style="normal" font-weight="400" style="stroke: none; stroke-width: 1; stroke-dasharray: none; stroke-linecap: butt; stroke-dashoffset: 0; stroke-linejoin: miter; stroke-miterlimit: 4; fill: rgb(255,255,255); fill-rule: nonzero; opacity: 1; white-space: pre;" ><tspan x="-55.9" y="12.57" >COOL</tspan></text>
</g>
<g transform="matrix(1 0 0 1 281.8 733.98)" style="" id="ddc93ffd-8f0f-45d7-8bc5-da2290d81d4d"  >
		<text xml:space="preserve" font-family="Lato" font-size="40" font-style="normal" font-weight="400" style="stroke: none; stroke-width: 1; stroke-dasharray: none; stroke-linecap: butt; stroke-dashoffset: 0; stroke-linejoin: miter; stroke-miterlimit: 4; fill: rgb(255,255,255); fill-rule: nonzero; opacity: 1; white-space: pre;" ><tspan x="-77.56" y="12.57" >BLAZOR</tspan></text>
</g>
</svg>