<?xml version="1.0" encoding="utf-8"?>

<!DOCTYPE svg PUBLIC "-//W3C//DTD SVG 1.1//EN" "http://www.w3.org/Graphics/SVG/1.1/DTD/svg11.dtd">
<!-- Uploaded to: SVG Repo, www.svgrepo.com, Generator: SVG Repo Mixer Tools -->
<svg height="800px" width="800px" version="1.1" id="_x32_" xmlns="http://www.w3.org/2000/svg" xmlns:xlink="http://www.w3.org/1999/xlink" 
	 viewBox="0 0 512 512"  xml:space="preserve">
<style type="text/css">
	.st0{fill:#000000;}
</style>
<g>
	<path class="st0" d="M495.083,304.837H16.916C7.577,304.837,0,312.415,0,321.755v22.869c0,4.319,1.659,8.476,4.61,11.622
		l15.659,16.575l22.194,66.573c3.823,11.52,14.617,19.285,26.744,19.285h122.403c12.854,0,24.084-8.69,27.316-21.15l18.841-73.457
		c0,0,0-16.575,18.242-16.575c18.234,0,18.234,16.575,18.234,16.575l18.85,73.457c3.224,12.46,14.454,21.15,27.308,21.15h122.393
		c12.145,0,22.921-7.766,26.752-19.285l22.185-66.573l15.668-16.575c2.959-3.146,4.601-7.303,4.601-11.622v-22.869
		C512,312.415,504.44,304.837,495.083,304.837z"/>
	<path class="st0" d="M112.456,129.445c1.882-9.305,8.339-17.054,17.156-20.577l24.965-9.989
		c6.432-2.566,10.639-8.793,10.639-15.712V70.235c0-6.114-3.318-11.776-8.672-14.77c-5.362-2.994-11.905-2.839-17.139,0.376
		c0,0-51.289,16.395-58.755,36.296c-7.458,19.893-59.688,194.004-59.688,194.004H80.65L112.456,129.445z"/>
	<path class="st0" d="M357.423,98.879l24.974,9.989c8.826,3.523,15.274,11.272,17.155,20.577l31.798,156.698h59.696
		c0,0-52.23-174.111-59.696-194.004c-7.458-19.901-58.746-36.296-58.746-36.296c-5.226-3.216-11.777-3.37-17.139-0.376
		c-5.355,2.993-8.682,8.655-8.682,14.77v12.932C346.784,90.086,350.992,96.313,357.423,98.879z"/>
</g>
</svg>